# xmcd
#
# Track frame offsets:
#	150
#	21281
#	43507
#	67998
#	85248
#	93215
#	96348
#	111356
#	124189
#	142987
#	173467
#	184831
#	223164
#	238020
#	259723
#	282589
#	296803
#	302277
#
# Disc length: 4628 seconds
#
# Revision: 0
# Processed by: cddbd v1.5.1PL0 Copyright (c) Steve Scherf et al.
# Submitted via: dBpowerAMP V4.0
#
DISCID=03121212
DTITLE=Various Artist - Jubileusz
DYEAR=1900
DGENRE=Vocal
TTITLE0=Otwarcie roku jubileuszowego, Jan Pawel II
TTITLE1=Po gorach dolinach
TTITLE2=Aniol Panski (Angelus Domini)
TTITLE3=Wielkie rzeczy sprawil Pan
TTITLE4=Bogu Rodzica, Dziewica 
TTITLE5=Zwycieztwo, gdy przyjdzie... Ks. Kard. Prymas Wyszynski
TTITLE6=Sluby Jasnogorskie, Ks. Kard. Prymas Stefan Wyszynski
TTITLE7=Nie rzucim Chryste swiatyn Twych
TTITLE8=Boze cos Polske
TTITLE9=Ojczyzna
TTITLE10=Matko Bolesna
TTITLE11=Uroczystosc Bozego Ciala
TTITLE12=Polecajac Ciebie
TTITLE13=Ojczyzna
TTITLE14=Lech Walesa
TTITLE15=Ave Maria
TTITLE16=Niech zstapi Duch Twoj - Jan Pawel II
TTITLE17=Zyczenia Jana Pawla II
EXTD=Album zawiera fragmenty przemowien:\nJana Pawla II\nKs. Prymasa S. Wyszynskiego\nKs. Jerzego Popieluszki\nLecha Walesy\n 
EXTT0=
EXTT1=
EXTT2=
EXTT3=
EXTT4=
EXTT5=
EXTT6=
EXTT7=
EXTT8=
EXTT9=
EXTT10=
EXTT11=
EXTT12=
EXTT13=
EXTT14=
EXTT15=
EXTT16=
EXTT17=
PLAYORDER=
